# xmcd
#
# Track frame offsets:
#	150
#	14403
#	29888
#	43868
#	57257
#	72361
#	89735
#	109397
#	131573
#	150902
#	161792
#	182006
#	198421
#	216648
#	250294
#
# Disc length: 3592 seconds
#
# Revision: 0
# Processed by: cddbd v1.5.2PL0 Copyright (c) Steve Scherf et al.
# Submitted via: EZCDAudioConverter 1.3.4.1
#
DISCID=e70e060f
DTITLE=Todd Rundgren - Definitive Rock Collection 1/2
DYEAR=2006
DGENRE=
TTITLE0=Todd Rundgren - We Gotta Get You A Woman
TTITLE1=Todd Rundgren - Be Nice To Me
TTITLE2=Todd Rundgren - Wailing Wall
TTITLE3=Todd Rundgren - I Saw The Light
TTITLE4=Todd Rundgren - Couldn't I Just Tell You
TTITLE5=Todd Rundgren - It Wouldn't Have Made Any Difference
TTITLE6=Todd Rundgren - Hello It's Me
TTITLE7=Todd Rundgren - Just One Victory
TTITLE8=Todd Rundgren - Sometimes I Don't Know What To Feel
TTITLE9=Todd Rundgren - A Dream Goes On Forever
TTITLE10=Todd Rundgren - Real Man
TTITLE11=Todd Rundgren - Love Of The Common Man
TTITLE12=Todd Rundgren - Cliché
TTITLE13=Todd Rundgren - The Verb ''To Love''
TTITLE14=Utopia - Love Is The Answer
EXTD=
EXTT0=
EXTT1=
EXTT2=
EXTT3=
EXTT4=
EXTT5=
EXTT6=
EXTT7=
EXTT8=
EXTT9=
EXTT10=
EXTT11=
EXTT12=
EXTT13=
EXTT14=
PLAYORDER=
